<?xml version="1.0" encoding="UTF-8" standalone="no"?>
<svg
   xmlns:dc="http://purl.org/dc/elements/1.1/"
   xmlns:cc="http://creativecommons.org/ns#"
   xmlns:rdf="http://www.w3.org/1999/02/22-rdf-syntax-ns#"
   xmlns:svg="http://www.w3.org/2000/svg"
   xmlns="http://www.w3.org/2000/svg"
   xmlns:sodipodi="http://sodipodi.sourceforge.net/DTD/sodipodi-0.dtd"
   xmlns:inkscape="http://www.inkscape.org/namespaces/inkscape"
   height="300px"
   width="300px"
   fill="#000000"
   viewBox="0 0 100 100"
   x="0px"
   y="0px"
   version="1.1"
   id="svg12"
   sodipodi:docname="MdlpApiOutcome.svg"
   inkscape:version="0.92.0 r15299"
   inkscape:export-filename="D:\Externals\MdlpApi\Docs\MdlpApiOutcome.png"
   inkscape:export-xdpi="320"
   inkscape:export-ydpi="320">
  <metadata
     id="metadata18">
    <rdf:RDF>
      <cc:Work
         rdf:about="">
        <dc:format>image/svg+xml</dc:format>
        <dc:type
           rdf:resource="http://purl.org/dc/dcmitype/StillImage" />
        <dc:title>CheckCloudYellow2</dc:title>
      </cc:Work>
    </rdf:RDF>
  </metadata>
  <defs
     id="defs16" />
  <sodipodi:namedview
     pagecolor="#ffffff"
     bordercolor="#666666"
     borderopacity="1"
     objecttolerance="10"
     gridtolerance="10"
     guidetolerance="10"
     inkscape:pageopacity="0"
     inkscape:pageshadow="2"
     inkscape:window-width="1920"
     inkscape:window-height="1017"
     id="namedview14"
     showgrid="false"
     inkscape:zoom="1.5733333"
     inkscape:cx="131.0856"
     inkscape:cy="140.24197"
     inkscape:window-x="-8"
     inkscape:window-y="-8"
     inkscape:window-maximized="1"
     inkscape:current-layer="svg12" />
  <title
     id="title2">CheckCloudYellow2</title>
  <path
     style="color:#000000;font-style:normal;font-variant:normal;font-weight:normal;font-stretch:normal;font-size:medium;line-height:normal;font-family:sans-serif;font-variant-ligatures:normal;font-variant-position:normal;font-variant-caps:normal;font-variant-numeric:normal;font-variant-alternates:normal;font-feature-settings:normal;text-indent:0;text-align:start;text-decoration:none;text-decoration-line:none;text-decoration-style:solid;text-decoration-color:#000000;letter-spacing:normal;word-spacing:normal;text-transform:none;writing-mode:lr-tb;direction:ltr;text-orientation:mixed;dominant-baseline:auto;baseline-shift:baseline;text-anchor:start;white-space:normal;shape-padding:0;clip-rule:nonzero;display:inline;overflow:visible;visibility:visible;opacity:1;isolation:auto;mix-blend-mode:normal;color-interpolation:sRGB;color-interpolation-filters:linearRGB;solid-color:#000000;solid-opacity:1;vector-effect:none;fill:#f2eb3b;fill-opacity:1;fill-rule:nonzero;stroke:none;stroke-width:15.26218128;stroke-linecap:butt;stroke-linejoin:miter;stroke-miterlimit:4;stroke-dasharray:none;stroke-dashoffset:0;stroke-opacity:1;color-rendering:auto;image-rendering:auto;shape-rendering:auto;text-rendering:auto;enable-background:accumulate"
     d="M 62.491008,12.012697 C 59.501252,11.066403 57.184955,11.01806 54.856338,10.953287 46.670865,10.956987 38.957555,14.3946 33.421318,20.22983 22.856045,19.783353 13.111525,27.161157 10.748039,37.557773 4.5026548,42.432725 0.72915876,49.957245 0.73759476,58.021022 0.74029476,72.257878 12.445879,83.961958 26.683305,83.961962 h 45.78595 c 14.23903,0 25.94571,-11.706677 25.94571,-25.94571 v -0.0048 -0.0042 C 98.403525,47.998995 92.590722,39.04327 83.869985,34.758117 81.641938,23.736477 73.240988,14.910937 62.491008,12.012697 Z m -26.105486,16.062183 0.0149,0.0042 c -0.0027,0.0041 -0.0061,0.0078 -0.0089,0.01193 -0.0048,-0.0013 -0.0095,-0.0023 -0.0143,-0.0036 z m 40.713656,11.93133 0.01133,0.003 v 0.01013 c -0.0037,-10e-4 -0.0071,-0.0027 -0.01073,-0.0036 -9.3e-5,-0.0033 -3.33e-4,-0.0063 -6.66e-4,-0.0095 z m -59.552913,1.766482 c -2.6e-4,0.0061 -0.0013,0.01183 -0.0017,0.01787 -0.0044,0.0027 -0.0081,0.0059 -0.01253,0.0083 l 6.67e-4,-0.01907 z"
     id="path4-8-0-6"
     inkscape:connector-curvature="0"
     sodipodi:nodetypes="cccccssscccccccccccccccccccc" />
  <path
     style="fill:#363634;fill-opacity:1;stroke-width:0.91573089"
     inkscape:connector-curvature="0"
     d="m 55.105492,26.30779 a 14.752425,14.752425 0 0 1 14.651696,14.441075 l 0.09157,5.65006 5.494384,1.346127 a 10.988771,10.988771 0 0 1 -2.60067,21.638723 H 26.955928 A 10.988771,10.988771 0 0 1 21.635532,48.761512 l 3.662923,-2.014607 0.1282,-4.15742 a 7.2434317,7.2434317 0 0 1 9.303827,-6.748935 l 5.17388,1.510953 2.985283,-4.48708 a 14.651695,14.651695 0 0 1 12.24332,-6.57495 m 0,-7.325846 A 21.977542,21.977542 0 0 0 36.818348,28.807733 14.569279,14.569279 0 0 0 18.082495,42.351395 18.314618,18.314618 0 0 0 8.6413088,58.395002 v 0 a 18.314618,18.314618 0 0 0 18.3146192,18.31462 h 45.786544 a 18.314618,18.314618 0 0 0 18.314616,-18.31462 v 0 A 18.314618,18.314618 0 0 0 77.110508,40.629823 21.977542,21.977542 0 0 0 55.132965,18.981943 Z"
     id="path4-2-1" />
  <rect
     style="opacity:0.7;fill:none;fill-opacity:1;stroke:none;stroke-width:0.33333334;stroke-miterlimit:4;stroke-dasharray:none;stroke-dashoffset:0;stroke-opacity:1"
     id="rect4575-1"
     width="101.48306"
     height="80.084755"
     x="-1.6949155"
     y="7.4152555"
     ry="0" />
  <g
     id="g4514"
     transform="matrix(1,0,0,-1,-142.32685,102.89422)"
     style="stroke:#363634;stroke-opacity:1">
    <path
       style="fill:none;fill-rule:evenodd;stroke:#363634;stroke-width:6.66666651;stroke-linecap:butt;stroke-linejoin:round;stroke-miterlimit:4;stroke-dasharray:none;stroke-opacity:1;paint-order:normal"
       d="M 192.93472,36.545885 V 62.591776 L 181.1379,50.168805"
       id="path4508"
       inkscape:connector-curvature="0"
       sodipodi:nodetypes="ccc" />
    <path
       sodipodi:nodetypes="ccc"
       inkscape:connector-curvature="0"
       id="path4510"
       d="M 192.93472,36.545885 V 62.591776 L 204.73154,50.168805"
       style="fill:none;fill-rule:evenodd;stroke:#363634;stroke-width:6.66666651;stroke-linecap:butt;stroke-linejoin:round;stroke-miterlimit:4;stroke-dasharray:none;stroke-opacity:1;paint-order:normal" />
  </g>
  <rect
     style="opacity:0.7;fill:none;fill-opacity:1;stroke:none;stroke-width:0.33333334;stroke-miterlimit:4;stroke-dasharray:none;stroke-dashoffset:0;stroke-opacity:1"
     id="rect4575"
     width="101.48306"
     height="80.084755"
     x="-1.6949151"
     y="7.4152541"
     ry="0" />
</svg>
