<?xml version="1.0" encoding="UTF-8" standalone="no"?>
<svg
   xmlns:dc="http://purl.org/dc/elements/1.1/"
   xmlns:cc="http://creativecommons.org/ns#"
   xmlns:rdf="http://www.w3.org/1999/02/22-rdf-syntax-ns#"
   xmlns:svg="http://www.w3.org/2000/svg"
   xmlns="http://www.w3.org/2000/svg"
   xmlns:sodipodi="http://sodipodi.sourceforge.net/DTD/sodipodi-0.dtd"
   xmlns:inkscape="http://www.inkscape.org/namespaces/inkscape"
   height="300px"
   width="300px"
   fill="#000000"
   viewBox="0 0 100 100"
   x="0px"
   y="0px"
   version="1.1"
   id="svg12"
   sodipodi:docname="MdlpApiClientLogo.svg"
   inkscape:version="0.92.0 r15299"
   inkscape:export-filename="C:\Users\yakovleva\Pictures\CheckCloudYellow2a.png"
   inkscape:export-xdpi="314.35712"
   inkscape:export-ydpi="314.35712">
  <metadata
     id="metadata18">
    <rdf:RDF>
      <cc:Work
         rdf:about="">
        <dc:format>image/svg+xml</dc:format>
        <dc:type
           rdf:resource="http://purl.org/dc/dcmitype/StillImage" />
        <dc:title>CheckCloudYellow2</dc:title>
      </cc:Work>
    </rdf:RDF>
  </metadata>
  <defs
     id="defs16" />
  <sodipodi:namedview
     pagecolor="#ffffff"
     bordercolor="#666666"
     borderopacity="1"
     objecttolerance="10"
     gridtolerance="10"
     guidetolerance="10"
     inkscape:pageopacity="0"
     inkscape:pageshadow="2"
     inkscape:window-width="1920"
     inkscape:window-height="1017"
     id="namedview14"
     showgrid="false"
     inkscape:zoom="1.5733333"
     inkscape:cx="19.856784"
     inkscape:cy="129.43689"
     inkscape:window-x="-8"
     inkscape:window-y="-8"
     inkscape:window-maximized="1"
     inkscape:current-layer="svg12" />
  <title
     id="title2">CheckCloudYellow2</title>
  <g
     transform="matrix(0.33333333,0,0,0.33333333,-66.230224,88.854516)"
     id="g5568">
    <path
       sodipodi:nodetypes="cccccssscccccccccccccccccccc"
       inkscape:connector-curvature="0"
       id="path4-8-0"
       d="m 386.1637,-230.52546 c -8.96927,-2.83888 -15.91816,-2.98391 -22.90401,-3.17823 -24.55642,0.0111 -47.69635,10.32394 -64.30506,27.82963 -31.69582,-1.33943 -60.92938,20.79398 -68.01984,51.98383 -18.73615,14.62486 -30.05664,37.19841 -30.03133,61.389742 0.008,42.71057 35.12485,77.82281 77.83713,77.82282 h 137.35785 c 42.71709,0 77.83712,-35.12003 77.83712,-77.83713 v -0.0144 -0.0126 c -0.0343,-30.024762 -17.47272,-56.891942 -43.63493,-69.747402 -6.68414,-33.06492 -31.88699,-59.54154 -64.13693,-68.23626 z m -78.31646,48.18655 0.0447,0.0126 c -0.008,0.0123 -0.0183,0.0234 -0.0267,0.0358 -0.0144,-0.004 -0.0285,-0.007 -0.0429,-0.0108 z m 122.14097,35.79399 0.034,0.009 v 0.0304 c -0.0111,-0.003 -0.0213,-0.008 -0.0322,-0.0108 -2.8e-4,-0.01 -10e-4,-0.0189 -0.002,-0.0285 z m -178.65874,5.29944 c -7.8e-4,0.0183 -0.004,0.0355 -0.005,0.0536 -0.0132,0.008 -0.0243,0.0177 -0.0376,0.0249 l 0.002,-0.0572 z"
       style="color:#000000;font-style:normal;font-variant:normal;font-weight:normal;font-stretch:normal;font-size:medium;line-height:normal;font-family:sans-serif;font-variant-ligatures:normal;font-variant-position:normal;font-variant-caps:normal;font-variant-numeric:normal;font-variant-alternates:normal;font-feature-settings:normal;text-indent:0;text-align:start;text-decoration:none;text-decoration-line:none;text-decoration-style:solid;text-decoration-color:#000000;letter-spacing:normal;word-spacing:normal;text-transform:none;writing-mode:lr-tb;direction:ltr;text-orientation:mixed;dominant-baseline:auto;baseline-shift:baseline;text-anchor:start;white-space:normal;shape-padding:0;clip-rule:nonzero;display:inline;overflow:visible;visibility:visible;opacity:1;isolation:auto;mix-blend-mode:normal;color-interpolation:sRGB;color-interpolation-filters:linearRGB;solid-color:#000000;solid-opacity:1;vector-effect:none;fill:#f2eb3b;fill-opacity:1;fill-rule:nonzero;stroke:none;stroke-width:45.7865448;stroke-linecap:butt;stroke-linejoin:miter;stroke-miterlimit:4;stroke-dasharray:none;stroke-dashoffset:0;stroke-opacity:1;color-rendering:auto;image-rendering:auto;shape-rendering:auto;text-rendering:auto;enable-background:accumulate" />
    <path
       id="path4-2"
       d="m 364.00715,-187.64018 a 44.257275,44.257275 0 0 1 43.95509,43.32323 l 0.27471,16.95018 16.48315,4.03837 a 32.966313,32.966313 0 0 1 -7.80201,64.916172 H 279.55846 a 32.966313,32.966313 0 0 1 -15.96119,-61.866792 l 10.98877,-6.04382 0.3846,-12.47225 a 21.730295,21.730295 0 0 1 27.91148,-20.24681 l 15.52164,4.53286 8.95585,-13.46124 a 43.955085,43.955085 0 0 1 36.72996,-19.72485 m 0,-21.97754 a 65.932626,65.932626 0 0 0 -54.94385,29.53232 43.707837,43.707837 0 0 0 -56.20756,40.63099 54.943854,54.943854 0 0 0 -28.32356,48.130812 v 0 a 54.943854,54.943854 0 0 0 54.94386,54.94386 h 137.35963 a 54.943854,54.943854 0 0 0 54.94385,-54.94386 v 0 a 54.943854,54.943854 0 0 0 -41.83974,-53.295532 65.932626,65.932626 0 0 0 -65.93263,-64.94364 z"
       inkscape:connector-curvature="0"
       style="fill:#363634;fill-opacity:1;stroke-width:2.74719262" />
    <g
       id="g10-0-7"
       transform="matrix(2.7471928,0,0,2.7471928,205.79389,-252.75873)">
      <polygon
         style="fill:#363634;fill-opacity:1"
         id="polygon6-7"
         points="44.83,65.29 31.5,51.97 36.34,47.12 44.83,55.6 61.66,38.77 66.5,43.61 " />
    </g>
  </g>
  <rect
     style="opacity:0.7;fill:none;fill-opacity:1;stroke:none;stroke-width:0.33333334;stroke-miterlimit:4;stroke-dasharray:none;stroke-dashoffset:0;stroke-opacity:1"
     id="rect4575"
     width="101.48306"
     height="80.084755"
     x="-1.6949151"
     y="7.4152541"
     ry="0" />
</svg>
